<?xml version="1.0" encoding="UTF-8" standalone="no"?>
<!-- Created with Inkscape (http://www.inkscape.org/) -->

<svg
   xmlns:dc="http://purl.org/dc/elements/1.1/"
   xmlns:cc="http://creativecommons.org/ns#"
   xmlns:rdf="http://www.w3.org/1999/02/22-rdf-syntax-ns#"
   xmlns:svg="http://www.w3.org/2000/svg"
   xmlns="http://www.w3.org/2000/svg"
   version="1.1"
   width="318"
   height="318"
   id="svg6065">
  <defs
     id="defs6067">
    <clipPath
       id="clipPath5708">
      <path
         d="M 0,0 612,0 612,792 0,792 0,0 z"
         id="path5710" />
    </clipPath>
  </defs>
  <metadata
     id="metadata6070">
    <rdf:RDF>
      <cc:Work
         rdf:about="">
        <dc:format>image/svg+xml</dc:format>
        <dc:type
           rdf:resource="http://purl.org/dc/dcmitype/StillImage" />
        <dc:title></dc:title>
      </cc:Work>
    </rdf:RDF>
  </metadata>
  <g
     transform="translate(0,-450)"
     id="layer1">
    <g
       transform="matrix(6.3542467,0,0,-6.3542467,-223.05481,1697.121)"
       id="g5954">
      <g
         transform="translate(36.1828,158.8305)"
         id="g5736">
        <path
           d="M 0,0 14.151,0 10.613,6.127 0,0 z"
           id="path5738"
           style="fill:#7ec9d5;fill-opacity:1;fill-rule:nonzero;stroke:none" />
      </g>
      <g
         transform="translate(64.4875,158.8305)"
         id="g5740">
        <path
           d="M 0,0 14.151,24.512 -7.077,12.256 -7.077,0 0,0 z"
           id="path5742"
           style="fill:#7ec9d5;fill-opacity:1;fill-rule:nonzero;stroke:none" />
      </g>
      <g
         transform="translate(57.4106,146.5719)"
         id="g5744">
        <path
           d="m 0,0 21.229,12.259 -14.152,0 L 0,0 z"
           id="path5746"
           style="fill:#b3df60;fill-opacity:1;fill-rule:nonzero;stroke:none" />
      </g>
      <g
         transform="translate(46.7961,164.9577)"
         id="g5748">
        <path
           d="m 0,0 10.615,6.128 0,24.514 L -3.538,6.128 0,0 z"
           id="path5750"
           style="fill:#b3df60;fill-opacity:1;fill-rule:nonzero;stroke:none" />
      </g>
      <g
         transform="translate(50.3342,158.8305)"
         id="g5752">
        <path
           d="M 0,0 7.076,-12.259 7.076,0 0,0 z"
           id="path5754"
           style="fill:#b3df60;fill-opacity:1;fill-rule:nonzero;stroke:none" />
      </g>
      <g
         transform="translate(36.1828,183.3435)"
         id="g5756">
        <path
           d="M 0,0 0,-24.513 7.075,-12.257 0,0 z"
           id="path5758"
           style="fill:#7ec9d5;fill-opacity:1;fill-rule:nonzero;stroke:none" />
      </g>
      <g
         transform="translate(78.6384,183.3424)"
         id="g5760">
        <path
           d="m 0,0 -14.151,-24.512 14.152,0 L 0.001,0 0,0 z"
           id="path5762"
           style="fill:#3499be;fill-opacity:1;fill-rule:nonzero;stroke:none" />
      </g>
      <g
         transform="translate(57.4106,171.0862)"
         id="g5764">
        <path
           d="m 0,0 -10.615,-6.128 3.539,-6.128 7.076,0 L 0,0 z"
           id="path5766"
           style="fill:#3499be;fill-opacity:1;fill-rule:nonzero;stroke:none" />
      </g>
      <g
         transform="translate(57.4106,195.6)"
         id="g5768">
        <path
           d="M 0,0 -21.228,-12.257 -14.153,-24.514 0,0 z"
           id="path5770"
           style="fill:#3499be;fill-opacity:1;fill-rule:nonzero;stroke:none" />
      </g>
    </g>
  </g>
</svg>
