<?xml version="1.0" encoding="UTF-8" standalone="no"?>
<svg
   xmlns="http://www.w3.org/2000/svg"
   fill="#FFFFFF"
   fill-opacity="1"
   height="24"
   viewBox="0 0 24 24"
   width="24"
   >
  <path d="M0 0h24v24H0z" fill="none"/>
  <path
     d="m 14.884922,7.9953886 c 0,1.1 -0.9,2 -2,2 -0.18,0 -0.35,-0.02 -0.51,-0.07 L 3.9210776,17.483137 c 0.05,0.16 0.07,0.33 0.07,0.51 0,1.1 -0.9,2 -2,2 -1.1,0 -2.0123542,-0.949417 -2.0123542,-2.049417 0,-1.1 0.9123542,-1.950583 2.0123542,-1.950583 0.18,0 0.35,0.02 0.51,0.07 L 10.954922,8.5053886 c -0.05,-0.16 -0.07,-0.33 -0.07,-0.51 0,-1.1 0.9,-2 2,-2 1.1,0 2,0.9 2,2 z"
     transform="translate(4.557539,-0.9942628)" />
</svg>
